<svg width="332" height="301" viewBox="0 0 332 301" fill="none" xmlns="http://www.w3.org/2000/svg">
<g clip-path="url(#clip0_9_2)">
<path d="M0.667602 247.371C3.56583 245.949 4.79621 242.175 7.94052 241.191C11.1669 240.18 14.7486 242.175 17.7015 239.988C18.9865 239.032 19.9435 237.445 21.502 236.871C22.8692 236.379 24.2909 236.926 25.6033 237.337C26.7243 237.692 27.8453 238.02 28.9663 238.375C33.4777 239.769 37.9618 241.137 42.4732 242.531C47.5861 244.089 52.6717 245.675 57.7846 247.234C58.2768 247.398 58.4954 246.605 58.0033 246.441C48.6524 243.57 39.3289 240.699 29.978 237.829C27.7907 237.172 25.5213 236.16 23.252 235.887C21.6661 235.696 20.4084 236.325 19.2873 237.363C17.7289 238.813 16.5532 240.152 14.2838 240.261C12.3972 240.371 10.5379 239.879 8.65139 240.18C4.76886 240.781 3.56582 245.019 0.284814 246.633C-0.207337 246.906 0.202791 247.617 0.667602 247.371Z" fill="#086972"/>
<path d="M49.8007 243.926C51.742 244.418 53.2731 242.476 55.023 241.902C57.3743 241.109 59.8898 241.438 62.0224 242.667C62.4873 242.941 62.8974 242.23 62.4326 241.956C60.628 240.89 58.5774 240.453 56.4995 240.727C55.5971 240.836 54.7496 241.082 53.9293 241.438C52.7536 241.956 51.3866 243.46 50.0195 243.133C49.4999 242.996 49.2812 243.789 49.8007 243.926Z" fill="#086972"/>
<path d="M70.8813 241.875C69.0494 240.371 67.2995 238.758 65.659 237.036C64.8935 236.242 64.1552 235.395 63.4443 234.547C63.0342 234.055 62.6241 233.563 62.2413 233.071C61.9679 232.716 61.6944 232.36 61.4484 232.005C61.0109 231.567 61.0109 231.02 61.4757 230.418C61.8038 230.555 62.3233 230.227 62.0499 229.844C60.382 227.603 59.1516 225.142 58.3588 222.462C58.1947 222.626 58.0306 222.791 57.8666 222.954C58.7688 223.2 59.425 223.665 59.9172 224.431C60.1906 224.868 60.9015 224.486 60.6281 224.02C56.5542 216.967 53.2185 209.53 50.703 201.792C50.4844 201.928 50.2382 202.065 50.0195 202.202C61.4757 213.466 66.6706 229.133 76.3223 241.739C76.6504 242.149 77.3612 241.739 77.0332 241.328C67.3542 228.669 62.1046 212.948 50.5936 201.627C50.3202 201.354 49.7734 201.627 49.9102 202.037C52.4529 209.857 55.7886 217.35 59.9172 224.458C60.1633 224.321 60.382 224.185 60.6281 224.048C59.9992 223.092 59.179 222.462 58.0854 222.189C57.7846 222.106 57.4838 222.381 57.5932 222.681C58.4134 225.415 59.6712 227.958 61.3664 230.255C61.5577 230.063 61.7491 229.872 61.9405 229.681C61.175 229.325 60.3274 229.681 60.136 230.583C59.8899 231.868 61.4484 233.29 62.1593 234.192C64.5927 237.227 67.3542 239.988 70.3618 242.449C70.7172 242.777 71.2914 242.203 70.8813 241.875Z" fill="#086972"/>
<path d="M68.0103 224.787C62.9794 217.268 58.9055 209.201 55.8979 200.671C55.8159 200.834 55.7065 200.999 55.6245 201.163C56.5541 200.944 57.3471 201.3 57.8665 202.12C58.1399 202.585 58.7961 202.175 58.5774 201.71C54.3394 192.55 50.0194 183.008 50.3202 172.7C50.0741 172.782 49.8007 172.836 49.5546 172.919C56.8549 187.957 63.7997 203.186 70.3618 218.553C70.5532 218.989 71.264 218.662 71.1 218.224C70.0062 214.943 68.94 211.635 67.8463 208.353C67.3268 206.74 66.7799 205.155 66.2605 203.541C65.9051 202.475 65.1395 200.151 66.6706 199.577C66.5065 199.522 66.3699 199.44 66.2057 199.386C68.1744 203.24 70.1156 207.096 72.0842 210.952C72.3303 211.416 73.0413 211.006 72.7951 210.542C70.6625 206.358 69.6782 201.737 69.8696 197.034C69.5962 197.062 69.3228 197.116 69.0766 197.143C74.7637 211.279 81.3531 225.06 88.7628 238.375C89.0088 238.84 89.7197 238.43 89.4736 237.965C82.0913 224.704 75.5293 211.006 69.8696 196.925C69.7056 196.514 69.0766 196.542 69.0766 197.034C68.8852 201.874 69.9242 206.604 72.1116 210.952C72.3577 210.815 72.5764 210.678 72.8225 210.542C70.8538 206.686 68.9126 202.83 66.944 198.976C66.862 198.839 66.6433 198.729 66.4792 198.784C63.745 199.796 65.4949 203.706 66.0964 205.537C67.5182 209.831 68.9126 214.151 70.3344 218.443C70.5804 218.334 70.8266 218.224 71.0726 218.115C64.5106 202.748 57.5657 187.519 50.2655 172.481C50.0741 172.099 49.4999 172.318 49.4999 172.7C49.1719 183.145 53.5738 192.851 57.8665 202.12C58.1126 201.983 58.3313 201.846 58.5774 201.71C57.8665 200.589 56.7181 200.097 55.4058 200.37C55.187 200.424 55.0503 200.671 55.1323 200.862C58.1673 209.447 62.2686 217.595 67.3268 225.169C67.6002 225.634 68.3111 225.223 68.0103 224.787Z" fill="#086972"/>
<path d="M13.983 277.638C23.4432 273.072 33.423 268.424 44.223 269.518C49.3359 270.037 54.2848 271.514 59.3703 272.169C61.9404 272.498 64.5379 272.635 67.1081 272.334C69.5142 272.033 71.7835 271.158 74.1349 270.639C77.1698 269.955 79.9314 270.666 82.8569 271.486C85.263 272.143 87.6418 272.689 90.1298 272.115C90.6493 272.006 90.4306 271.213 89.9111 271.322C84.9349 272.498 80.2594 268.916 75.2285 269.627C72.7405 269.982 70.4164 270.966 67.9557 271.404C65.3581 271.842 62.706 271.787 60.0812 271.458C54.9136 270.857 49.8828 269.326 44.6878 268.752C39.5749 268.178 34.5166 268.834 29.6225 270.255C24.0448 271.896 18.7678 274.412 13.5729 276.927C13.0807 277.146 13.5182 277.857 13.983 277.638Z" fill="#086972"/>
<path d="M69.4869 300.304C72.6859 298.938 75.8302 297.434 78.8651 295.738C80.4509 294.836 82.0094 293.907 83.5679 292.923C84.9624 292.02 86.3568 290.734 87.8879 290.079C89.6105 289.368 92.2079 290.708 93.9304 291.227C95.7623 291.801 97.5943 292.348 99.3984 292.923C103.144 294.07 106.89 295.219 110.609 296.367C111.101 296.532 111.32 295.738 110.828 295.574C106.836 294.344 102.816 293.114 98.8243 291.883C96.9107 291.282 94.9968 290.708 93.0828 290.106C91.6064 289.641 89.7471 288.684 88.1887 289.067C86.7395 289.422 85.4272 290.68 84.1968 291.501C82.6109 292.539 80.9704 293.551 79.3299 294.508C76.0216 296.395 72.6039 298.09 69.0767 299.566C68.5846 299.785 69.0221 300.496 69.4869 300.304Z" fill="#086972"/>
<path d="M103.5 301.152C105.578 300.113 107.656 299.046 109.734 298.008C111.648 297.024 113.698 295.711 115.886 295.52C118.1 295.301 119.823 296.75 121.737 297.598C123.35 298.309 125.1 298.719 126.85 298.828C130.951 299.046 134.779 296.996 138.853 297.215C142.107 297.406 145.387 300.086 148.587 298.391C149.051 298.144 148.641 297.434 148.177 297.68C146.181 298.746 144.021 297.707 142.052 297.078C140.357 296.532 138.716 296.285 136.939 296.477C132.728 296.914 128.873 298.691 124.553 297.68C120.972 296.859 118.237 293.879 114.382 295C112.604 295.52 110.937 296.504 109.296 297.325C107.218 298.363 105.14 299.43 103.062 300.468C102.626 300.687 103.036 301.398 103.5 301.152Z" fill="#086972"/>
<path d="M119.468 295.219C117.772 293.742 116.241 292.102 114.984 290.216C114.41 289.368 113.89 288.465 113.398 287.563C113.152 287.099 112.933 286.633 112.742 286.169C112.578 285.786 112.414 285.43 112.276 285.048C112.03 284.637 112.14 284.255 112.605 283.899C112.851 283.79 113.097 283.681 113.343 283.571C110.336 279.142 108.449 274.111 107.82 268.807C107.574 268.916 107.356 268.998 107.11 269.108C107.602 269.737 108.094 270.365 108.613 271.022C108.914 271.404 109.488 270.912 109.269 270.529C104.512 262.025 101.968 252.456 101.914 242.723C101.668 242.832 101.45 242.914 101.204 243.023C103.062 244.527 104.484 246.386 105.36 248.601C105.606 248.491 105.852 248.382 106.098 248.273C103.964 243.761 103.528 238.676 104.786 233.864C104.512 233.864 104.266 233.864 103.992 233.864C109.598 249.913 115.175 265.935 120.78 281.986C120.944 282.478 121.737 282.259 121.573 281.767C118.757 273.537 117.362 264.897 117.444 256.175C117.198 256.284 116.98 256.366 116.734 256.476C118.401 257.979 119.44 259.866 119.823 262.081C119.905 262.545 120.643 262.436 120.616 261.971C120.534 260.304 120.425 258.609 120.343 256.94C120.124 257.05 119.932 257.187 119.714 257.296C121.163 258.225 121.436 260.686 121.901 262.218C122.393 263.858 122.885 265.498 123.405 267.166C124.417 270.556 125.455 273.92 126.467 277.31C128.518 284.064 130.569 290.844 132.619 297.598C132.783 298.09 133.576 297.898 133.412 297.379C131.197 290.106 129.01 282.805 126.795 275.533C125.729 271.978 124.635 268.424 123.569 264.869C123.022 263.037 122.475 261.233 121.928 259.401C121.573 258.28 121.163 257.268 120.151 256.612C119.905 256.448 119.522 256.667 119.522 256.968C119.604 258.635 119.714 260.33 119.796 261.999C120.069 261.971 120.343 261.917 120.589 261.889C120.206 259.537 119.058 257.487 117.28 255.901C117.007 255.655 116.597 255.819 116.57 256.202C116.488 264.979 117.882 273.701 120.725 282.012C120.999 281.931 121.245 281.876 121.518 281.794C115.913 265.744 110.336 249.722 104.73 233.672C104.594 233.317 104.046 233.262 103.938 233.672C102.626 238.731 103.118 244.007 105.332 248.71C105.524 249.12 106.262 248.82 106.07 248.382C105.14 246.031 103.692 244.035 101.696 242.449C101.422 242.231 100.984 242.367 100.984 242.75C101.04 252.62 103.61 262.354 108.449 270.966C108.668 270.803 108.886 270.639 109.105 270.474C108.613 269.846 108.12 269.217 107.602 268.56C107.382 268.287 106.863 268.506 106.89 268.861C107.52 274.33 109.434 279.497 112.523 284.036C112.796 284.419 113.343 284.173 113.261 283.708C113.124 282.942 112.222 282.669 111.593 283.134C110.445 283.954 111.566 285.896 111.976 286.825C113.534 290.298 115.858 293.332 118.73 295.821C119.304 296.121 119.878 295.547 119.468 295.219Z" fill="#086972"/>
<path d="M90.8681 233.891C90.5126 228.751 99.8362 231.704 102.434 232.196C106.698 232.989 110.937 233.782 115.202 234.575C123.706 236.16 132.236 237.746 140.739 239.333C141.259 239.442 141.477 238.648 140.958 238.54C131.197 236.708 121.464 234.903 111.702 233.071C106.918 232.169 102.132 231.266 97.348 230.392C95.6256 230.063 93.6296 229.708 92.0165 230.611C90.786 231.266 89.9658 232.469 90.0752 233.891C90.0752 234.411 90.9227 234.411 90.8681 233.891Z" fill="#086972"/>
<path d="M135.08 238.43C137.923 238.731 139.673 236.024 141.887 234.712C143.775 233.618 145.415 234.465 147.357 234.848C149.517 235.286 151.731 235.34 153.919 235.067C154.437 235.012 154.437 234.192 153.919 234.246C151.457 234.547 148.997 234.438 146.591 233.836C145.141 233.453 143.829 232.989 142.381 233.563C139.81 234.547 138.06 237.938 135.08 237.61C134.561 237.555 134.561 238.375 135.08 238.43Z" fill="#086972"/>
<path d="M187.22 291.009C193.782 288.711 200.4 286.414 207.18 284.774C214.262 283.079 221.398 282.395 228.671 282.614C235.861 282.833 242.997 283.653 250.161 284.309C257.352 284.993 264.543 285.649 271.734 286.333C279.992 287.099 288.276 287.864 296.533 288.657C297.052 288.711 297.052 287.892 296.533 287.836C281.796 286.47 267.058 285.102 252.294 283.708C238.103 282.395 223.831 280.454 209.696 283.38C201.93 284.993 194.438 287.617 186.974 290.215C186.51 290.379 186.728 291.172 187.22 291.009Z" fill="#086972"/>
<path d="M216.121 264.104C221.015 263.065 225.608 261.015 230.229 259.155C235.178 257.187 240.181 255.819 245.485 255.355C250.845 254.89 256.231 255.163 261.563 255.492C266.922 255.819 272.28 256.203 277.667 256.585C283.928 257.05 290.217 257.569 296.478 258.116C296.998 258.171 296.998 257.35 296.478 257.296C285.378 256.311 274.276 255.464 263.149 254.753C252.567 254.07 242.15 253.797 232.061 257.542C226.702 259.538 221.507 262.081 215.875 263.284C215.41 263.421 215.601 264.214 216.121 264.104Z" fill="#086972"/>
<path d="M279.144 232.579C283.054 229.599 287.182 226.673 291.556 224.431C293.69 223.337 295.986 222.462 298.392 222.271C300.99 222.052 303.587 222.572 306.13 222.899C311.297 223.528 316.493 223.911 321.687 224.239C325.133 224.458 329.507 224.95 331.941 221.943C332.269 221.532 331.695 220.959 331.367 221.369C328.605 224.787 322.781 223.501 319.008 223.255C313.813 222.899 308.673 222.407 303.505 221.751C301.29 221.478 299.103 221.259 296.888 221.67C294.701 222.052 292.65 222.927 290.709 223.966C286.498 226.207 282.506 228.997 278.706 231.895C278.324 232.196 278.734 232.907 279.144 232.579Z" fill="#086972"/>
<path d="M128.627 228.067C132.51 225.142 136.419 222.243 140.302 219.318C144.021 216.529 147.493 213.603 152.359 213.358C156.953 213.139 161.656 213.659 166.222 214.041C171.144 214.451 176.038 214.998 180.904 215.681C185.006 216.256 189.9 217.786 193.782 215.654C194.248 215.408 193.838 214.697 193.372 214.943C191.376 216.037 189.162 216.037 186.948 215.764C184.568 215.463 182.19 215.053 179.811 214.724C175.218 214.095 170.597 213.576 165.949 213.193C161.383 212.81 156.653 212.263 152.087 212.537C147.849 212.783 144.705 214.97 141.395 217.459C136.993 220.74 132.619 224.048 128.217 227.329C127.807 227.685 128.217 228.396 128.627 228.067Z" fill="#086972"/>
<path d="M282.452 256.968C282.698 255.163 283.054 253.413 283.573 251.664C283.819 250.843 284.066 250.023 284.394 249.202C284.584 248.71 285.104 247.89 285.815 248.081C286.17 248.191 286.334 249.421 286.362 249.668C286.416 250.105 287.018 250.242 287.154 249.777C288.44 245.593 289.916 241 293.854 238.566C293.635 238.457 293.443 238.321 293.224 238.211C293.224 238.895 293.197 239.606 293.197 240.289C293.197 240.672 293.772 240.863 293.963 240.508C296.396 235.449 299.048 230.145 303.97 227.083C303.779 226.919 303.56 226.783 303.368 226.618C300.908 232.989 298.037 239.195 294.783 245.211C294.564 245.593 295.111 246.085 295.439 245.703C297.271 243.516 299.13 241.328 301.537 239.743C301.345 239.55 301.154 239.359 300.962 239.168C297.927 245.566 294.619 251.8 290.982 257.87C290.709 258.334 291.42 258.745 291.694 258.28C295.302 252.21 298.638 245.976 301.673 239.578C301.837 239.25 301.482 238.758 301.099 239.004C298.638 240.645 296.724 242.859 294.838 245.101C295.056 245.265 295.275 245.43 295.494 245.593C298.775 239.524 301.673 233.262 304.161 226.809C304.298 226.482 303.833 226.181 303.56 226.345C298.502 229.489 295.767 234.875 293.252 240.07C293.498 240.152 293.772 240.207 294.018 240.289C294.018 239.606 294.045 238.895 294.045 238.211C294.045 237.911 293.69 237.692 293.416 237.855C289.315 240.398 287.702 245.156 286.362 249.558C286.636 249.585 286.908 249.64 287.154 249.668C287.018 248.273 285.76 245.894 284.23 247.672C283.464 248.574 283.162 250.05 282.834 251.172C282.288 252.976 281.906 254.835 281.632 256.721C281.604 257.269 282.37 257.487 282.452 256.968Z" fill="#086972"/>
<path d="M91.415 210.815C93.5476 209.666 95.7077 208.518 98.0591 207.889C100.548 207.233 103.008 207.451 105.496 207.78C110.445 208.436 115.394 209.092 120.315 209.748C120.835 209.831 120.835 209.01 120.315 208.928C115.038 208.217 109.734 207.451 104.457 206.823C102.024 206.522 99.6998 206.522 97.3481 207.206C95.1062 207.861 93.0282 208.983 90.9776 210.076C90.5127 210.377 90.9502 211.06 91.415 210.815Z" fill="#086972"/>
<path d="M257.735 25.3547C259.704 23.6869 262.465 24.015 264.625 25.0813C266.266 25.8742 267.606 27.4874 269.52 27.5694C271.296 27.6241 272.773 26.4211 274.276 25.6282C275.288 25.1087 276.328 24.7532 277.476 24.9992C278.706 25.2454 279.772 25.9562 280.894 26.4484C284.584 28.0616 287.046 25.8196 290.162 24.0423C291.037 23.5502 291.967 23.1127 292.978 23.0307C294.264 22.9214 295.412 23.4955 296.56 23.9876C298.365 24.7532 299.732 25.054 301.564 24.3158C303.45 23.5775 304.981 23.6869 306.868 24.3704C308.071 24.8079 309.219 25.3547 310.477 25.6282C312.364 26.0656 314.387 25.9562 315.809 24.5072C316.191 24.1244 315.59 23.5502 315.235 23.933C313.403 25.7922 310.614 24.9173 308.509 24.097C306.376 23.2767 304.189 22.4018 301.919 23.2494C300.498 23.7962 299.54 24.179 298.009 23.6595C296.97 23.3041 296.014 22.73 294.947 22.4292C293.334 21.937 291.83 22.2104 290.354 22.9487C288.658 23.7962 287.182 25.136 285.404 25.8469C283.054 26.7765 281.222 25.5461 279.088 24.6439C277.53 23.9876 276.054 23.8783 274.496 24.5618C272.609 25.4095 270.777 27.2686 268.562 26.4757C267.386 26.0656 266.457 25.1087 265.391 24.5072C264.488 24.015 263.504 23.6595 262.492 23.4681C260.551 23.1127 258.665 23.4408 257.133 24.7259C256.751 25.136 257.352 25.7102 257.735 25.3547Z" fill="#086972"/>
<path d="M267.578 44.0292C268.098 44.0292 268.098 43.2089 267.578 43.2089C267.058 43.2089 267.058 44.0292 267.578 44.0292Z" fill="#086972"/>
<path d="M273.046 47.0095C274.332 44.6854 277.366 45.8064 279.253 46.5719C281.14 47.3375 282.834 47.8024 284.83 47.1188C286.472 46.5446 287.948 45.4509 289.642 45.0681C291.994 44.5214 293.334 46.5173 295.466 46.9822C298.802 47.7203 302.165 44.0019 305.31 45.5603C306.185 45.9978 306.786 46.5719 307.825 46.49C308.782 46.4353 309.657 45.9704 310.587 45.7517C313.184 45.1502 315.891 45.615 318.215 46.9001C318.68 47.1461 319.09 46.4353 318.625 46.1892C317.149 45.3689 315.563 44.8767 313.895 44.7128C313.047 44.6307 312.173 44.658 311.325 44.7948C310.313 44.9315 309.383 45.3689 308.399 45.5603C307.059 45.8064 306.485 45.1502 305.392 44.6854C304.845 44.4666 304.243 44.3573 303.669 44.3846C302.302 44.4393 300.99 45.0135 299.732 45.4783C298.119 46.0799 296.396 46.654 294.756 45.8337C293.362 45.1502 292.268 44.1112 290.627 44.1112C287.236 44.1386 284.858 47.3923 281.276 46.408C278.624 45.6697 274.358 43.0722 272.39 46.5719C272.09 47.0641 272.8 47.4743 273.046 47.0095Z" fill="#086972"/>
<path d="M246.525 79.7376C248.466 78.2064 250.681 78.2885 252.813 79.2728C253.989 79.8197 255.247 80.3392 256.477 79.601C257.188 79.1634 257.653 78.4799 258.501 78.2339C259.403 77.9604 260.36 78.1518 261.235 78.3705C262.793 78.7533 264.297 79.4369 265.91 79.5462C267.824 79.6829 269.574 78.8627 271.434 78.6713C273.43 78.4799 274.824 79.6829 276.682 79.9563C278.488 80.2025 279.882 78.7533 281.686 79.0268C283.874 79.3548 286.034 80.0931 288.194 80.6399C288.714 80.7766 288.932 79.9837 288.412 79.847C286.143 79.2728 283.792 78.3978 281.468 78.1518C279.5 77.9331 278.078 79.5462 276.108 78.9447C274.276 78.3978 272.964 77.6049 270.996 77.8784C268.89 78.1791 266.976 78.9993 264.816 78.5346C263.149 78.1791 261.536 77.3862 259.813 77.2769C259.184 77.2495 258.528 77.3042 257.926 77.5503C257.161 77.8511 256.751 78.4799 256.04 78.89C254.399 79.847 252.185 77.8237 250.435 77.687C248.767 77.5503 247.236 78.1245 245.923 79.1361C245.513 79.4915 246.115 80.0657 246.525 79.7376Z" fill="#086972"/>
<path d="M89.7745 20.0778C90.294 20.0778 90.294 19.2576 89.7745 19.2576C89.2549 19.2576 89.2549 20.0778 89.7745 20.0778Z" fill="#086972"/>
<path d="M92.1805 20.7066C92.6727 18.2732 95.899 19.8317 97.0746 20.5699C98.4144 21.4175 99.8361 22.183 101.476 21.7183C103.254 21.1987 104.456 19.6676 106.426 19.5583C108.284 19.4762 110.09 20.3239 111.84 20.8706C113.343 21.3355 114.929 21.6636 116.488 21.2808C118.319 20.8433 119.878 19.5583 121.737 19.2302C125.401 18.6012 128.709 21.5815 132.427 20.4332C132.92 20.2691 132.728 19.4762 132.209 19.6403C128.326 20.8706 124.635 17.4255 120.698 18.656C118.674 19.2848 116.98 20.7066 114.764 20.6246C112.714 20.5426 110.855 19.5583 108.914 19.0661C107.382 18.6833 105.824 18.5739 104.348 19.2575C103.5 19.6403 102.762 20.2691 101.914 20.6792C100.52 21.3355 99.3441 20.9527 98.0863 20.2418C96.7192 19.4489 95.5435 18.5192 93.8757 18.656C92.6999 18.738 91.6609 19.3395 91.4422 20.5426C91.3055 21.0073 92.0985 21.2261 92.1805 20.7066Z" fill="#086972"/>
<path d="M94.6687 180.355C97.9223 178.989 101.204 181.422 104.484 181.586C106.18 181.668 107.82 181.258 109.488 180.93C111.593 180.52 113.398 180.492 115.421 181.34C116.652 181.859 117.772 182.187 119.03 181.695C119.741 181.422 120.343 180.957 121.054 180.711C121.846 180.438 122.667 180.383 123.514 180.383C126.44 180.438 129.365 181.45 132.154 180.137C132.619 179.918 132.209 179.208 131.744 179.426C128.764 180.821 125.455 179.289 122.311 179.618C120.807 179.781 119.823 180.656 118.429 181.066C116.761 181.558 115.12 180.137 113.48 179.891C109.952 179.345 106.617 181.313 103.062 180.602C100.22 180.028 97.3481 178.359 94.4499 179.59C93.9851 179.781 94.2039 180.574 94.6687 180.355Z" fill="#086972"/>
<path d="M35.5557 140.081C37.9416 140.081 39.8758 138.147 39.8758 135.761C39.8758 133.376 37.9416 131.441 35.5557 131.441C33.1699 131.441 31.2358 133.376 31.2358 135.761C31.2358 138.147 33.1699 140.081 35.5557 140.081Z" fill="#071A52"/>
<path d="M287.018 110.388C288.694 110.388 290.053 109.029 290.053 107.353C290.053 105.677 288.694 104.318 287.018 104.318C285.342 104.318 283.984 105.677 283.984 107.353C283.984 109.029 285.342 110.388 287.018 110.388Z" fill="#071A52"/>
<path d="M259.704 4.65691C260.942 4.65691 261.946 3.65312 261.946 2.41488C261.946 1.17665 260.942 0.172852 259.704 0.172852C258.465 0.172852 257.462 1.17665 257.462 2.41488C257.462 3.65312 258.465 4.65691 259.704 4.65691Z" fill="#071A52"/>
<path d="M160.945 199.085C162.485 199.085 163.734 197.836 163.734 196.296C163.734 194.756 162.485 193.507 160.945 193.507C159.404 193.507 158.156 194.756 158.156 196.296C158.156 197.836 159.404 199.085 160.945 199.085Z" fill="#071A52"/>
<path d="M32.384 40.6935C34.1507 40.6935 35.583 39.2613 35.583 37.4945C35.583 35.7277 34.1507 34.2955 32.384 34.2955C30.6172 34.2955 29.185 35.7277 29.185 37.4945C29.185 39.2613 30.6172 40.6935 32.384 40.6935Z" fill="#071A52"/>
<path d="M142.681 152.932C143.693 152.932 144.513 152.112 144.513 151.1C144.513 150.088 143.693 149.268 142.681 149.268C141.669 149.268 140.849 150.088 140.849 151.1C140.849 152.112 141.669 152.932 142.681 152.932Z" fill="#071A52"/>
<path d="M315.59 168.516C317.13 168.516 318.379 167.268 318.379 165.728C318.379 164.188 317.13 162.939 315.59 162.939C314.05 162.939 312.801 164.188 312.801 165.728C312.801 167.268 314.05 168.516 315.59 168.516Z" fill="#071A52"/>
<path d="M11.6043 214.615C12.752 214.615 13.6823 213.684 13.6823 212.537C13.6823 211.389 12.752 210.459 11.6043 210.459C10.4567 210.459 9.52634 211.389 9.52634 212.537C9.52634 213.684 10.4567 214.615 11.6043 214.615Z" fill="#071A52"/>
<path d="M96.5824 53.134C94.2037 57.9736 91.7976 62.8131 89.4189 67.6526C99.2621 80.8587 109.104 94.0375 118.948 107.243C121.491 103.389 124.006 99.4508 126.549 95.4866C132.537 86.081 138.251 76.7848 143.719 67.5706C141.861 62.8404 139.974 58.0829 138.115 53.3529C136.911 52.7239 135.709 52.1224 134.505 51.4936C122.858 51.5209 111.21 51.5482 99.5901 51.5756C98.551 52.1224 97.5667 52.6419 96.5824 53.134Z" fill="pink"/>
<path d="M89.747 67.8713C91.825 63.3053 93.9577 58.7665 96.145 54.2552C96.3637 53.7903 95.6801 53.3529 95.4341 53.8449C93.2468 58.3564 91.1141 62.8951 89.0361 67.4612C88.8173 67.926 89.5283 68.3635 89.747 67.8713Z" fill="red"/>
<path d="M89.2001 68.3635C98.8244 81.5696 108.64 94.6117 118.648 107.544C118.976 107.954 119.55 107.381 119.222 106.97C109.269 94.0922 99.5081 81.1048 89.911 67.9534C89.6103 67.5432 88.8994 67.9534 89.2001 68.3635Z" fill="red"/>
<path d="M96.3364 53.7903C97.4847 53.1888 98.6058 52.5599 99.7541 51.9584C100.219 51.7123 99.8085 51.0014 99.3441 51.2475C98.1956 51.8491 97.0746 52.4779 95.9263 53.0794C95.4341 53.3529 95.8715 54.0363 96.3364 53.7903Z" fill="red"/>
<path d="M100.438 52.013C108.968 52.013 117.526 52.013 126.057 52.013C126.576 52.013 126.576 51.1928 126.057 51.1928C117.526 51.1928 108.968 51.1928 100.438 51.1928C99.9182 51.1928 99.9182 52.013 100.438 52.013Z" fill="red"/>
<path d="M144.103 67.4885C142.38 62.9225 140.603 58.411 138.771 53.8723C138.579 53.3802 137.787 53.5989 137.978 54.091C139.81 58.6024 141.587 63.1412 143.309 67.7073C143.501 68.1994 144.294 67.9807 144.103 67.4885Z" fill="black"/>
<path d="M143.2 67.8987C135.189 81.0228 127.014 94.0649 118.674 106.998C118.374 107.435 119.084 107.845 119.386 107.408C127.725 94.475 135.9 81.4602 143.911 68.3088C144.185 67.8714 143.473 67.4339 143.2 67.8987Z" fill="red"/>
<path d="M138.279 53.0248C137.322 52.4232 136.365 51.7944 135.408 51.1929C134.97 50.9194 134.56 51.603 134.998 51.9038C135.955 52.5053 136.911 53.1341 137.869 53.7356C138.333 54.0364 138.743 53.3255 138.279 53.0248Z" fill="red"/>
<path d="M134.478 51.1108C127.342 51.1108 120.206 51.1108 113.096 51.1108C112.578 51.1108 112.578 51.9311 113.096 51.9311C120.233 51.9311 127.369 51.9311 134.478 51.9311C134.998 51.9311 134.998 51.1108 134.478 51.1108Z" fill="red"/>
<path d="M90.0753 68.2815C94.9694 66.1762 99.8638 64.0708 104.758 61.9655C105.25 61.7468 104.812 61.0632 104.348 61.2546C99.4538 63.3599 94.5592 65.4652 89.6651 67.5706C89.2003 67.7894 89.6104 68.5002 90.0753 68.2815Z" fill="red"/>
<path d="M96.4731 53.5443C99.4804 54.009 102.434 54.6653 105.359 55.4855C105.878 55.6222 106.098 54.8293 105.578 54.6926C102.652 53.845 99.6998 53.2161 96.6917 52.7514C96.1723 52.6693 95.9262 53.4622 96.4731 53.5443Z" fill="red"/>
<path d="M105.14 55.3489C105.796 57.3995 106.37 59.4501 106.862 61.5554C106.972 62.0749 107.766 61.8562 107.656 61.3367C107.164 59.2314 106.59 57.1807 105.934 55.1301C105.77 54.638 104.976 54.8293 105.14 55.3489Z" fill="red"/>
<path d="M106.398 55.4308C113.726 55.4308 121.026 55.4308 128.354 55.4308C128.873 55.4308 128.873 54.6105 128.354 54.6105C121.026 54.6105 113.726 54.6105 106.398 54.6105C105.878 54.6105 105.878 55.4308 106.398 55.4308Z" fill="red"/>
<path d="M127.998 55.5949C127.725 57.0987 127.451 58.6299 127.178 60.1337C127.096 60.6532 127.889 60.8719 127.971 60.3524C128.244 58.8486 128.518 57.3174 128.791 55.8136C128.873 55.2941 128.08 55.0754 127.998 55.5949Z" fill="red"/>
<path d="M107.3 61.6101C113.698 61.6101 120.096 61.6101 126.522 61.6101C127.041 61.6101 127.041 60.7897 126.522 60.7897C120.124 60.7897 113.726 60.7897 107.3 60.7897C106.78 60.7897 106.78 61.6101 107.3 61.6101Z" fill="red"/>
<path d="M129.147 55.4308C132.127 54.802 135.08 54.1731 138.06 53.5442C138.579 53.4349 138.361 52.6419 137.841 52.7513C134.861 53.3802 131.908 54.0091 128.928 54.6379C128.408 54.7473 128.627 55.5402 129.147 55.4308Z" fill="red"/>
<path d="M127.779 61.364C130.541 61.8015 133.111 63.3599 135.627 64.5356C138.306 65.7934 140.958 67.0511 143.637 68.3088C144.103 68.5275 144.54 67.8167 144.048 67.5979C141.205 66.2581 138.388 64.9458 135.545 63.6061C133.139 62.4577 130.65 61.0086 127.998 60.5711C127.479 60.489 127.26 61.2819 127.779 61.364Z" fill="red"/>
<path d="M107.546 62.8678C111.101 77.5231 114.628 92.2056 118.182 106.861C118.319 107.381 119.084 107.162 118.976 106.642C115.421 91.9869 111.894 77.3043 108.34 62.6491C108.202 62.1296 107.41 62.3483 107.546 62.8678Z" fill="red"/>
<path d="M126.631 63.8521C123.296 77.9605 120.534 92.2329 118.401 106.588C118.319 107.107 119.112 107.325 119.194 106.806C121.326 92.4517 124.088 78.2065 127.424 64.0708C127.561 63.5513 126.768 63.3326 126.631 63.8521Z" fill="red"/>
<path d="M126.904 36.483C128.135 33.3386 128.818 30.0303 128.928 26.6399C128.955 26.1204 128.135 26.1204 128.108 26.6399C127.998 29.9482 127.315 33.1746 126.112 36.2643C125.92 36.7564 126.713 36.9478 126.904 36.483Z" fill="red"/>
<path d="M132.51 37.0297C135.134 34.0495 138.087 31.4246 141.395 29.21C141.833 28.9092 141.423 28.1984 140.985 28.4991C137.623 30.7411 134.587 33.4206 131.935 36.4556C131.58 36.8384 132.154 37.4125 132.51 37.0297Z" fill="red"/>
<path d="M137.896 42.088C141.287 41.0764 144.786 40.6936 148.313 40.967C148.833 40.9943 148.833 40.1741 148.313 40.1468C144.704 39.8733 141.149 40.2561 137.677 41.2951C137.185 41.4592 137.377 42.2521 137.896 42.088Z" fill="red"/>
<path d="M80.2868 22.9214C80.6148 28.335 77.5799 33.5027 72.7131 35.8541C72.4396 35.9908 72.467 36.4009 72.7131 36.565C77.1698 39.2445 79.2204 44.166 80.3962 49.0055C80.5328 49.525 81.2984 49.3063 81.189 48.7868C79.9587 43.7285 77.7713 38.6155 73.1232 35.8541C73.1232 36.1001 73.1232 36.3188 73.1232 36.565C78.2361 34.0769 81.4624 28.5812 81.107 22.9214C81.0796 22.4018 80.2594 22.4018 80.2868 22.9214Z" fill="#086972"/>
<path d="M80.5875 22.9214C80.232 28.6085 83.4584 34.1042 88.5713 36.565C88.5713 36.3188 88.5713 36.1001 88.5713 35.8541C83.8958 38.6429 81.7085 43.7558 80.4781 48.8414C80.3414 49.3609 81.1343 49.5797 81.271 49.0601C82.4468 44.1933 84.4973 39.2445 88.9814 36.565C89.2275 36.4282 89.2548 35.9908 88.9814 35.8541C84.1146 33.5026 81.0523 28.335 81.3804 22.9214C81.435 22.4018 80.6148 22.4018 80.5875 22.9214Z" fill="#086972"/>
<path d="M213.715 228.177C214.672 227.767 215.984 227.165 217.488 226.317C220.003 224.923 221.261 224.212 222.027 223.092C223.011 221.614 222.628 220.822 223.913 219.345C224.105 219.099 225.007 218.142 226.183 217.623C228.206 216.775 230.093 217.786 233.237 218.908C236.135 219.947 238.405 220.439 242.943 221.451C244.747 221.861 246.935 222.271 250.107 223.255C251.009 223.528 251.72 223.775 252.212 223.939C252.267 224.513 252.294 225.99 251.337 227.329C250.899 227.93 250.298 228.422 249.341 228.86C247.127 229.9 245.021 229.708 243.243 229.625C239.415 229.462 241.001 230.009 231.979 230.173C230.011 230.2 228.397 230.2 227.276 230.2C225.882 231.157 224.487 232.141 223.065 233.153C220.659 234.903 218.363 236.652 216.175 238.375C215.355 234.985 214.535 231.567 213.715 228.177Z" fill="red"/>
<path d="M202.313 193.18C200.344 194.218 200.126 194.6 192.798 200.835C181.37 210.542 180.112 211.06 169.749 220.111C159.824 228.751 157.965 230.911 156.079 233.754C151.375 240.946 150.337 246.961 150.035 249.886C149.625 253.823 149.079 259.292 152.551 263.612C154.739 266.319 157.582 267.439 158.539 267.795C161.41 268.889 163.761 268.752 167.999 268.451C173.632 268.042 177.924 266.947 179.62 266.483C181.479 265.963 185.798 264.678 191.212 261.999C196.298 259.483 198.486 257.624 205.43 252.949C208.52 250.871 213.086 247.836 218.828 244.336C219.183 241.602 218.883 239.469 218.581 238.13C217.871 234.957 216.422 232.77 214.809 230.364C213.496 228.396 212.238 226.892 211.363 225.907C213.414 224.349 216.093 222.107 218.91 219.099C220.797 217.075 223.777 213.85 226.265 209.311C229.327 203.733 232.389 198.101 230.421 194.218C227.331 188.121 212.621 187.848 202.313 193.18Z" fill="#00FF7F"/>
<path opacity="0.18" d="M226.811 196.16C225.253 199.769 222.683 204.881 218.581 210.35C212.621 218.252 206.606 222.626 197.528 229.107C171.854 247.425 164.964 251.608 165.73 253.359C166.769 255.737 181.232 251.472 183.338 250.843C198.704 246.304 210.024 239.305 217.105 234.192C215.301 231.43 213.496 228.669 211.691 225.935C213.906 224.349 216.969 221.833 219.839 218.087C221.425 216.037 223.831 212.865 225.389 208.08C226.975 203.323 227.031 199.085 226.811 196.16Z" fill="#00FF7F"/>
<path d="M202.204 193.152C192.47 200.398 182.982 207.999 173.85 215.955C169.476 219.756 165.101 223.556 161 227.63C157.363 231.239 153.973 235.232 151.923 239.988C149.789 244.91 149.189 250.597 149.707 255.929C150.145 260.331 151.759 264.76 155.777 267.057C159.988 269.436 165.293 269.19 169.941 268.698C175.655 268.124 181.288 266.729 186.619 264.569C198.512 259.729 207.836 250.68 219.074 244.691C219.539 244.446 219.129 243.735 218.664 243.98C209.285 248.984 201.302 256.202 191.896 261.206C186.974 263.83 181.67 265.744 176.202 266.921C171.144 267.987 165.457 268.807 160.316 267.823C157.91 267.357 155.586 266.373 153.863 264.569C152.195 262.792 151.293 260.468 150.829 258.089C149.817 252.921 150.281 247.071 151.977 242.094C153.673 237.118 156.981 232.934 160.589 229.215C164.335 225.361 168.437 221.806 172.456 218.279C182.162 209.748 192.224 201.601 202.614 193.891C203.024 193.562 202.642 192.851 202.204 193.152Z" fill="black"/>
<path d="M175.409 249.202C184.377 245.73 192.498 240.536 200.208 234.848C204.008 232.059 207.754 229.161 211.473 226.263C215.137 223.392 218.636 220.357 221.48 216.666C221.808 216.256 221.097 215.846 220.769 216.256C217.871 220.029 214.234 223.064 210.516 225.99C206.852 228.86 203.161 231.704 199.388 234.465C191.842 239.988 183.94 245.074 175.19 248.437C174.698 248.601 174.917 249.394 175.409 249.202Z" fill="black"/>
<path d="M211.063 226.181C216.34 230.611 219.129 237.473 218.39 244.336C218.335 244.856 219.156 244.856 219.211 244.336C219.949 237.282 217.051 230.173 211.637 225.606C211.254 225.251 210.68 225.825 211.063 226.181Z" fill="black"/>
<path d="M218.335 236.708C219.894 236.242 221.261 234.931 222.573 234.001C224.214 232.852 225.827 231.704 227.467 230.555C227.905 230.255 227.495 229.544 227.057 229.844C225.581 230.884 224.077 231.95 222.601 232.989C221.234 233.946 219.73 235.423 218.117 235.915C217.597 236.051 217.816 236.844 218.335 236.708Z" fill="black"/>
<path d="M213.824 228.559C216.914 227.275 219.757 225.524 222.327 223.365C222.737 223.009 222.136 222.435 221.753 222.791C219.32 224.869 216.586 226.536 213.633 227.767C213.14 227.986 213.359 228.778 213.824 228.559Z" fill="black"/>
<path d="M222.027 223.009C222.546 223.009 222.546 222.189 222.027 222.189C221.507 222.189 221.507 223.009 222.027 223.009Z" fill="black"/>
<path d="M223.011 222.025C223.476 220.931 223.968 219.728 224.843 218.88C226.019 217.732 227.441 217.896 228.944 218.224C231.733 218.853 234.467 219.728 237.201 220.521C239.745 221.232 242.287 221.861 244.911 222.162C246.443 222.325 247.728 222.517 249.095 223.2C250.107 223.693 250.981 224.185 252.103 224.295C252.622 224.349 252.622 223.529 252.103 223.474C250.599 223.337 249.423 222.298 248.001 221.833C246.579 221.369 244.993 221.396 243.517 221.15C240.291 220.63 237.147 219.646 234.029 218.716C232.499 218.279 230.967 217.842 229.409 217.486C228.261 217.24 227.057 216.939 225.909 217.294C223.913 217.896 222.956 220.029 222.218 221.806C222.027 222.298 222.819 222.517 223.011 222.025Z" fill="blue"/>
<path d="M227.359 231.157C233.209 230.282 239.005 230.145 244.911 230.036C246.963 230.009 249.149 229.763 250.79 228.422C252.185 227.275 252.977 225.606 252.595 223.829C252.485 223.31 251.693 223.528 251.802 224.048C252.321 226.536 250.079 228.368 247.865 228.915C245.595 229.462 243.135 229.189 240.811 229.243C236.217 229.325 231.679 229.708 227.139 230.392C226.62 230.446 226.866 231.239 227.359 231.157Z" fill="green"/>
<path d="M248.111 225.715C250.134 224.267 252.185 222.817 254.208 221.369C254.345 220.439 254.782 218.415 256.45 216.693C256.942 216.173 258.09 214.97 259.813 214.643C261.618 214.287 263.012 215.107 264.57 215.818C267.086 216.967 269.519 217.404 274.332 218.334C278.132 219.045 280.046 219.4 282.78 219.263C286.498 219.045 289.15 218.06 290.736 219.618C290.9 219.783 291.584 220.521 291.53 221.423C291.448 222.572 290.217 223.309 289.232 223.884C284.94 226.345 282.534 227.056 282.534 227.056C276.464 228.832 273.402 229.735 270.777 229.954C268.644 230.117 265.609 230.2 261.946 229.625C260.879 233.29 257.653 235.64 254.618 235.449C250.708 235.204 247.099 230.802 248.111 225.715Z" fill="purple"/>
<path d="M208.848 201.545C209.45 199.714 210.57 197.39 212.676 196.624C214.043 196.132 215.3 196.46 215.711 196.57C218.253 197.199 223.476 196.296 233.893 194.518C239.061 193.644 245.595 192.359 253.114 190.445C253.141 191.839 253.114 193.671 253.032 195.803C252.841 200.589 252.349 204.198 252.239 205.045C251.775 208.436 250.954 214.068 248.466 220.903C247.837 222.654 247.209 224.102 246.771 225.087C247.837 225.579 248.985 226.235 250.107 227.165C254.727 230.856 256.067 236.078 256.505 238.293C255.848 239.086 254.864 240.261 253.606 241.601C248.521 247.015 243.817 250.05 234.849 255.601C229.327 259.018 225.28 261.507 218.8 265.334C210.926 269.982 204.555 273.591 196.626 275.861C194.658 276.435 191.54 277.2 187.604 276.79C185.69 276.599 182.244 276.244 178.936 273.838C174.698 270.775 173.358 266.291 172.811 264.323C171.581 259.92 172.046 255.792 173.194 251.499C173.987 248.491 176.858 238.512 186.838 227.274C188.834 225.032 194.52 219.974 205.84 209.857C208.574 207.424 210.816 205.429 212.32 204.116C211.172 203.24 210.024 202.393 208.848 201.545Z" fill="#00FF7F"/>
<path opacity="0.18" d="M246.033 193.972C245.403 196.378 244.393 199.85 242.861 203.925C228.889 240.946 197.665 256.94 200.208 260.932C202.067 263.885 219.894 256.53 232.745 248.792C242.369 242.996 249.533 236.789 254.317 232.114C253.551 230.993 252.376 229.462 250.599 228.012C248.877 226.618 247.235 225.771 246.005 225.251C246.853 224.02 247.974 222.162 248.931 219.783C249.559 218.252 250.107 216.611 250.817 213.275C251.966 207.998 252.431 203.815 252.567 202.503C252.895 199.358 253.196 195.285 253.141 190.472C250.763 191.62 248.411 192.796 246.033 193.972Z" fill="pink"/>
<path d="M252.731 190.445C252.759 195.612 252.431 200.78 251.72 205.921C251.063 210.541 250.243 215.298 248.548 219.674C246.717 224.403 243.571 227.848 239.771 231.102C235.889 234.411 231.979 237.664 228.069 240.918C223.585 244.664 219.074 248.382 214.59 252.128C214.18 252.456 214.754 253.03 215.164 252.702C223.394 245.867 231.623 239.058 239.799 232.141C243.407 229.079 246.689 225.907 248.657 221.505C250.571 217.24 251.501 212.564 252.239 207.971C253.169 202.174 253.606 196.323 253.551 190.445C253.551 189.898 252.731 189.898 252.731 190.445Z" fill="black"/>
<path d="M209.312 202.312C210.434 202.913 211.555 203.515 212.703 204.116C213.168 204.362 213.578 203.651 213.113 203.405C211.992 202.804 210.871 202.202 209.723 201.601C209.258 201.354 208.848 202.065 209.312 202.312Z" fill="black"/>
<path d="M212.703 203.788C202.97 211.717 192.744 219.564 184.623 229.189C177.624 237.473 171.854 247.973 171.882 259.101C171.882 263.995 173.222 269.108 176.83 272.58C180.44 276.079 185.662 277.447 190.584 277.2C196.598 276.9 202.313 274.521 207.672 271.896C213.414 269.08 218.855 265.744 224.323 262.436C235.588 255.601 248.165 249.23 256.614 238.813C256.942 238.403 256.368 237.829 256.04 238.239C248.958 246.988 239.005 252.592 229.518 258.334C224.296 261.507 219.128 264.732 213.797 267.741C208.574 270.693 203.134 273.509 197.364 275.177C191.95 276.736 185.908 277.064 180.795 274.358C175.874 271.787 173.358 266.811 172.839 261.397C171.827 250.461 177.323 239.578 183.967 231.266C192.252 220.903 203.078 212.647 213.304 204.334C213.687 204.033 213.113 203.459 212.703 203.788Z" fill="black"/>
<path d="M246.579 225.415C251.72 227.876 255.301 232.742 256.149 238.375C256.231 238.895 257.024 238.676 256.942 238.156C256.095 232.332 252.321 227.219 247.017 224.704C246.525 224.486 246.115 225.197 246.579 225.415Z" fill="black"/>
<path d="M248.22 226.126C249.313 225.689 250.189 224.95 251.118 224.239C252.212 223.392 253.333 222.572 254.427 221.724C254.837 221.395 254.427 220.685 254.017 221.013C253.032 221.751 252.048 222.49 251.063 223.255C250.107 223.994 249.149 224.896 248.001 225.333C247.537 225.524 247.728 226.317 248.22 226.126Z" fill="black"/>
<path d="M254.837 221.395C255.383 219.782 256.04 218.196 256.915 216.72C258.118 214.697 259.922 214.916 261.946 215.435C265.09 216.228 268.098 217.431 271.269 218.142C277.421 219.509 283.737 219.974 290.026 219.564C290.545 219.537 290.545 218.716 290.026 218.744C282.616 219.236 275.152 218.471 267.988 216.447C266.266 215.955 264.598 215.326 262.875 214.834C261.563 214.451 260.004 214.013 258.637 214.287C257.407 214.533 256.696 215.463 256.095 216.501C255.247 217.978 254.591 219.564 254.044 221.177C253.88 221.669 254.673 221.888 254.837 221.395Z" fill="black"/>
<path d="M256.013 234.602C258.063 233.043 260.086 231.485 262.137 229.926C262.547 229.599 262.137 228.888 261.727 229.215C259.676 230.774 257.653 232.332 255.602 233.891C255.192 234.219 255.602 234.93 256.013 234.602Z" fill="black"/>
<path d="M262.11 229.735C268.781 231.184 275.589 230.091 281.906 227.685C284.776 226.591 288.057 225.36 290.518 223.501C292.24 222.216 292.486 219.756 290.217 218.88C289.724 218.689 289.506 219.481 289.998 219.674C291.228 220.138 291.366 221.478 290.518 222.407C290.108 222.873 289.534 223.173 288.986 223.501C287.866 224.13 286.718 224.704 285.568 225.251C283.136 226.4 280.62 227.384 278.022 228.149C272.91 229.625 267.55 230.117 262.301 228.97C261.809 228.832 261.59 229.625 262.11 229.735Z" fill="black"/>
<path d="M190.857 111.646C195.012 108.201 201.22 104.045 209.504 101.584C213.386 100.436 218.253 99.0142 224.706 99.5607C234.603 100.408 241.411 105.275 243.818 107.052C247.591 109.814 250.161 112.739 251.747 114.79C252.048 133.957 252.458 153.151 252.977 172.318C253.141 178.224 253.305 184.157 253.497 190.063C249.615 192.469 244.173 195.175 237.283 196.761C221.152 200.452 207.727 195.53 202.286 193.152C202.258 188.312 201.958 181.04 200.482 172.318C198.076 157.99 194.33 152.221 191.978 139.89C190.802 133.519 189.682 123.95 190.857 111.646Z" fill="#00008B"/>
<path d="M240.291 116.376C238.951 117.852 238.705 119.52 238.787 125.918C238.841 132.644 239.197 137.237 239.416 142.569C239.58 146.425 239.717 149.487 239.635 153.478C239.553 158.509 239.225 162.638 238.923 165.4C236.245 168.408 233.865 170.759 232.089 172.454C228.097 176.254 223.749 180.355 217.324 184.211C214.781 185.715 212.594 186.808 211.117 187.492C209.778 187.273 208.274 186.945 206.633 186.535C202.75 185.551 201.138 184.675 198.212 184.675C197.337 184.675 194.576 184.675 194.302 185.66C194.056 186.48 195.588 187.766 196.79 188.394C197.912 188.969 198.404 188.804 199.524 189.324C200.782 189.925 201.602 190.8 202.094 191.457C201.575 192.194 200.782 193.315 199.907 194.765C198.896 196.46 198.676 197.116 197.501 199.139C196.27 201.272 195.642 202.338 195.095 202.885C194.248 203.678 193.728 203.842 189.928 205.537C186.154 207.233 185.498 207.616 185.498 208.08C185.498 208.546 186.236 208.654 189.162 209.912C191.54 210.924 191.76 211.143 192.99 211.498C194.52 211.936 195.45 212.209 196.572 211.962C198.348 211.607 199.497 210.267 199.989 209.556C200.236 209.775 200.836 210.241 201.63 210.267C202.258 210.267 202.778 210.022 203.188 209.693C204.91 208.463 205.758 206.194 207.454 203.651C207.754 203.214 208.82 201.601 210.543 199.796C211.609 198.647 212.594 197.8 213.305 197.225C214.262 197.006 215.683 196.679 217.379 196.187C223.968 194.3 228.725 192.031 232.717 190.117C235.041 188.995 237.667 187.519 242.889 184.593C247.427 182.051 249.779 180.629 251.857 177.841C252.075 177.54 253.196 176.036 254.181 173.821C254.481 173.137 255.548 170.704 256.122 166.439C256.395 164.552 256.395 163.513 256.423 157.607C256.477 150.088 256.477 150.99 256.477 150.225C256.45 139.207 255.876 140.191 255.684 130.074C255.657 129.117 255.63 126.52 254.837 123.239C253.989 119.684 252.923 118.098 252.321 117.306C251.556 116.294 250.626 115.091 249.041 114.407C246.142 113.123 242.287 114.161 240.291 116.376Z" fill="pink"/>
<path opacity="0.25" d="M249.067 114.38C249.724 116.539 250.517 119.656 251.063 123.43C251.72 127.996 251.966 133.027 250.489 146.178C249.259 157.17 248.657 162.666 247.071 167.806C244.803 175.134 243.161 180.465 238.159 184.675C234.932 187.382 231.405 188.64 224.323 191.128C219.128 192.96 214.672 194.054 211.609 194.737C209.422 197.691 206.168 201.436 201.548 204.991C197.938 207.779 194.466 209.693 191.596 211.006C192.006 211.279 193.7 212.373 195.998 212.072C198.676 211.717 200.126 209.803 200.372 209.448C200.892 209.831 201.657 210.241 202.504 210.104C204.254 209.831 205.184 207.342 205.649 206.221C206.66 203.897 208.684 200.698 213.222 197.199C216.23 196.405 220.304 195.202 225.034 193.397C231.623 190.855 236.053 188.394 240.811 185.742C248.439 181.476 250.161 179.727 251.419 178.032C253.716 174.942 254.673 171.77 255.083 170.376C255.821 167.888 255.958 165.099 256.231 159.658C256.423 155.611 256.423 152.494 256.423 150.143C256.423 146.096 256.341 143.089 256.259 140.492C256.149 136.718 255.93 132.289 255.383 126.984C254.973 123.129 254.673 121.598 253.798 119.875C252.458 117.141 250.462 115.392 249.067 114.38Z" fill="#FF4500"/>
<path d="M239.881 116.266C238.459 119.821 238.295 123.649 238.377 127.449C238.459 131.632 238.677 135.789 238.869 139.972C239.252 148.447 239.525 156.951 238.513 165.4C238.459 165.919 239.279 165.919 239.334 165.4C240.319 157.143 240.099 148.803 239.717 140.519C239.525 136.417 239.307 132.316 239.197 128.187C239.087 124.223 239.169 120.231 240.673 116.485C240.865 115.993 240.073 115.774 239.881 116.266Z" fill="black"/>
<path d="M240.099 164.689C237.585 166.084 235.561 168.107 233.619 170.212C231.515 172.481 229.409 174.696 227.057 176.72C222.245 180.903 216.832 184.348 211.035 187.027C210.543 187.246 210.98 187.957 211.445 187.738C217.023 185.167 222.245 181.887 226.921 177.923C229.245 175.981 231.377 173.848 233.429 171.633C235.561 169.31 237.693 166.958 240.483 165.427C240.975 165.126 240.565 164.415 240.099 164.689Z" fill="black"/>
<path d="M211.226 187.081C208.219 186.453 205.184 185.796 202.176 185.113C200.672 184.785 199.142 184.375 197.61 184.101C196.654 183.938 195.642 183.856 194.794 184.402C193.482 185.25 193.482 186.808 194.658 187.738C195.506 188.421 196.598 188.722 197.61 189.051C199.251 189.57 200.646 190.226 201.712 191.62C202.04 192.031 202.75 191.62 202.422 191.21C201.466 189.98 200.318 189.105 198.84 188.585C197.83 188.23 196.708 188.011 195.778 187.492C195.122 187.137 194.274 186.589 194.766 185.605C195.232 184.675 196.408 184.758 197.255 184.894C199.524 185.223 201.794 185.878 204.063 186.398C206.387 186.918 208.711 187.41 211.035 187.902C211.527 187.984 211.746 187.191 211.226 187.081Z" fill="black"/>
<path d="M201.056 191.758C199.852 193.972 198.622 196.159 197.419 198.374C196.818 199.44 196.298 200.589 195.588 201.627C194.848 202.694 193.864 203.241 192.716 203.788C190.556 204.8 188.232 205.62 186.154 206.795C185.224 207.342 184.623 208.327 185.416 209.283C186.4 210.459 188.342 209.994 189.654 209.775C191.458 209.475 193.181 208.873 194.822 208.108C198.24 206.467 201.138 203.897 203.216 200.725C203.516 200.288 202.806 199.878 202.504 200.316C200.672 203.159 198.13 205.455 195.15 207.041C193.728 207.78 192.196 208.381 190.638 208.737C189.764 208.955 188.834 209.147 187.904 209.174C187.056 209.229 186.838 209.339 186.428 208.491C185.908 207.998 185.962 207.67 186.564 207.506C186.756 207.425 186.92 207.342 187.111 207.26C188.861 206.439 190.638 205.647 192.388 204.827C193.756 204.198 195.094 203.651 196.024 202.421C197.118 200.972 197.884 199.249 198.758 197.663C199.77 195.831 200.782 193.999 201.766 192.194C202.012 191.702 201.302 191.292 201.056 191.758Z" fill="black"/>
<path d="M213.551 197.745C220.851 195.695 227.933 192.961 234.713 189.57C238.077 187.875 241.357 186.043 244.557 184.02C247.427 182.215 250.462 180.383 252.513 177.622C252.813 177.184 252.103 176.774 251.802 177.212C249.669 180.11 246.333 181.996 243.326 183.856C240.263 185.742 237.091 187.492 233.865 189.105C227.277 192.359 220.413 194.984 213.332 196.98C212.84 197.089 213.058 197.882 213.551 197.745Z" fill="black"/>
<path d="M240.427 117.005C242.697 112.548 248.521 113.559 251.391 116.732C254.837 120.559 255.001 126.165 255.383 131.031C256.204 141.667 256.368 152.385 255.712 163.021C255.384 168.189 254.618 173.657 251.173 177.758C250.845 178.168 251.419 178.743 251.747 178.333C254.837 174.614 255.903 169.912 256.341 165.208C256.915 159.193 256.915 153.096 256.86 147.053C256.805 140.737 256.505 134.395 255.931 128.105C255.493 123.375 254.645 118.153 250.735 115.009C247.4 112.329 241.822 112.412 239.689 116.595C239.471 117.059 240.181 117.469 240.427 117.005Z" fill="black"/>
<path d="M188.916 210.241C190.912 211.143 193.318 212.51 195.588 212.51C197.774 212.482 199.388 210.678 200.864 209.311C205.102 205.373 209.34 201.436 213.578 197.526C213.961 197.171 213.387 196.597 213.004 196.952C209.422 200.288 205.84 203.596 202.258 206.932C200.672 208.381 199.032 210.459 197.036 211.361C194.684 212.428 191.458 210.514 189.354 209.556C188.861 209.311 188.45 210.022 188.916 210.241Z" fill="black"/>
<path d="M200.044 209.666C200.946 211.361 202.942 210.678 203.954 209.502C205.95 207.15 207.508 204.308 209.203 201.764C209.504 201.327 208.793 200.916 208.492 201.354C207.426 202.94 206.36 204.527 205.294 206.112C204.692 206.987 202.04 211.717 200.754 209.256C200.508 208.791 199.798 209.202 200.044 209.666Z" fill="black"/>
<path d="M193.7 208.327C194.52 208.764 195.532 209.202 196.434 208.764C196.9 208.518 197.091 208.136 197.31 207.698C197.692 206.959 198.076 206.385 198.786 205.921C199.224 205.62 198.814 204.909 198.376 205.21C197.72 205.647 197.173 206.194 196.79 206.905C196.516 207.425 196.352 208.053 195.642 208.108C195.122 208.162 194.548 207.835 194.11 207.616C193.674 207.397 193.236 208.08 193.7 208.327Z" fill="black"/>
<path d="M188.096 52.0951C187.138 54.0363 186.182 57.29 185.88 58.3563C185.444 59.8875 184.459 63.4692 183.912 68.2267C183.612 70.8515 183.284 73.7224 183.556 77.523C183.694 79.3276 183.885 82.1711 184.951 85.6982C185.662 88.1043 186.701 91.5767 189.518 95.1312C191.978 98.2208 194.794 100.162 197.036 101.338C198.458 101.365 200.18 101.284 202.094 100.928C205.54 100.272 208.219 98.9863 210.024 97.9474C210.27 99.3419 210.598 100.818 211.008 102.349C211.856 105.521 212.894 108.31 213.933 110.716C215.054 110.524 216.394 110.197 217.816 109.54C222.327 107.435 224.487 103.553 225.253 101.939C224.843 100.354 224.515 98.6309 224.214 96.8537C223.175 90.2096 223.449 84.2764 224.105 79.4642C224.679 79.6556 225.609 79.9017 226.757 79.847C228.999 79.7104 230.53 78.4799 231.295 77.8238C231.951 77.2769 234.931 74.6247 234.823 70.6875C234.795 69.7578 234.741 67.4885 233.127 66.2581C231.623 65.1371 229.601 65.5472 228.124 65.848C226.429 66.2035 225.171 66.9143 224.405 67.4065C224.979 65.5199 226.183 60.6804 224.405 55.048C224.023 53.8449 221.48 46.1891 213.988 42.8808C203.817 38.3421 191.596 45.0682 188.096 52.0951Z" fill="pink"/>
<path opacity="0.24" d="M218.992 52.2592C219.21 54.802 219.375 58.4931 218.992 62.8678C217.816 76.1287 212.566 85.3428 211.199 87.6395C209.121 91.1394 205.567 96.2249 199.88 101.228C201.575 101.009 203.516 100.627 205.594 99.8885C211.309 97.8654 215.136 94.393 217.214 92.1236C217.379 95.1586 217.898 98.8497 219.128 102.896C219.675 104.619 220.277 106.204 220.906 107.626C222.355 105.74 223.777 103.853 225.225 101.939C224.925 100.162 224.651 98.2755 224.46 96.3343C223.831 90.4558 223.831 85.0421 224.159 80.2299C225.389 80.2572 227.167 80.1479 229.053 79.4097C237.311 76.1287 242.013 63.0865 237.557 55.9777C237.365 55.6769 236.381 54.1458 234.357 52.7787C228.097 48.5681 220.14 51.7671 218.992 52.2592Z" fill="black"/>
<path d="M186.1 57.5362C185.552 55.6496 184.787 52.0405 185.58 47.6111C185.826 46.2439 186.674 41.8419 189.682 38.3695C194.084 33.3112 199.606 34.2682 206.77 31.6981C211.308 30.085 217.542 26.6946 223.859 18.7107C223.284 21.6636 222.71 24.6439 222.136 27.5968C223.12 27.8702 226.429 28.5812 229.819 26.9133C235.451 24.1517 235.943 17.4803 235.971 17.1796C236.655 18.7107 237.885 22.1011 237.338 26.4211C236.955 29.3741 235.889 31.5887 235.123 32.9284C235.451 33.2839 237.201 35.0885 239.225 34.815C241.685 34.487 243.982 31.1239 243.325 26.7765C243.873 28.3898 244.529 31.0419 244.365 34.2956C244.146 38.2601 242.833 41.2404 241.959 42.8536C242.177 43.045 243.571 44.3027 245.541 44.0566C247.263 43.8379 248.739 42.5801 249.313 40.8029C249.177 42.6348 248.849 45.287 247.783 48.3219C246.333 52.4232 245.131 52.7514 244.529 55.6769C243.571 60.2703 246.033 61.8288 245.377 65.9301C244.829 69.3752 242.587 71.5352 239.745 74.2967C234.577 79.3003 228.643 82.0071 223.667 83.5109C223.886 81.9798 224.132 80.4486 224.351 78.9175C224.979 79.3003 226.073 79.8198 227.44 79.7651C230.229 79.6557 231.979 77.1676 232.909 75.8279C233.975 74.3241 235.753 71.754 234.795 68.9924C234.003 66.7503 231.897 65.8207 231.705 65.7387C229.245 64.6997 226.073 65.6293 224.023 68.1448C222.874 63.6334 221.753 59.1493 220.605 54.638C216.722 52.1772 212.867 49.7437 208.984 47.283C207.07 46.9275 201.848 46.2166 195.998 48.8141C190.092 51.4389 187.084 55.8956 186.1 57.5362Z" fill="#FF4500"/>
<path d="M185.69 57.4268C183.366 66.1215 181.971 75.3631 184.104 84.2492C185.854 91.4675 190.282 99.6974 197.829 102.049C198.322 102.213 198.54 101.42 198.048 101.256C190.474 98.9045 186.236 90.3465 184.678 83.1282C182.846 74.6522 184.24 65.9028 186.455 57.6456C186.619 57.1534 185.826 56.9347 185.69 57.4268Z" fill="black"/>
<path d="M198.43 101.912C211.035 100.627 221.562 91.522 224.515 79.1635C224.624 78.644 223.859 78.4253 223.722 78.9448C220.851 90.8932 210.707 99.834 198.43 101.091C197.912 101.146 197.884 101.967 198.43 101.912Z" fill="black"/>
<path d="M223.804 79.3822C229.437 82.8273 234.931 75.609 235.287 70.5509C235.479 67.8714 234.249 65.8207 231.597 65.0551C229.135 64.3442 226.456 65.0825 224.706 66.9417C224.351 67.3245 224.925 67.8987 225.281 67.5159C226.729 65.9573 228.917 65.2739 231.022 65.7386C232.115 65.9848 233.319 66.5863 233.947 67.5706C234.631 68.6369 234.549 70.1133 234.385 71.289C233.729 75.5271 229.026 81.597 224.214 78.644C223.777 78.398 223.339 79.1089 223.804 79.3822Z" fill="black"/>
<path d="M223.749 79.3276C222.683 86.9013 223.065 94.5843 224.87 102.021C225.007 102.541 225.8 102.322 225.663 101.802C223.886 94.5023 223.503 86.956 224.542 79.5463C224.597 79.0268 223.804 78.8081 223.749 79.3276Z" fill="black"/>
<path d="M209.614 98.0567C210.461 102.487 211.774 106.779 213.578 110.934C213.797 111.426 214.508 110.99 214.289 110.524C212.512 106.451 211.227 102.212 210.406 97.838C210.297 97.3186 209.532 97.5373 209.614 98.0567Z" fill="black"/>
<path d="M214.152 111.044C219.429 110.197 223.886 106.56 225.882 101.611C226.073 101.119 225.281 100.9 225.089 101.392C223.203 106.096 218.91 109.458 213.933 110.251C213.414 110.333 213.633 111.126 214.152 111.044Z" fill="black"/>
<path d="M210.27 99.0132C211.391 99.0686 212.156 98.3028 213.004 97.6465C214.125 96.7716 215.191 95.842 216.175 94.8577C218.007 93.0258 219.484 90.9204 220.441 88.5143C220.632 88.0222 219.839 87.8035 219.648 88.2956C218.8 90.4282 217.488 92.3148 215.902 93.9554C215.191 94.721 214.426 95.4046 213.633 96.088C212.758 96.8263 211.5 98.2481 210.27 98.1934C209.75 98.166 209.75 98.9863 210.27 99.0132Z" fill="black"/>
<path d="M210.324 98.5764C212.648 97.0726 214.808 95.3501 216.832 93.4635C217.214 93.108 216.64 92.5065 216.257 92.8893C214.289 94.7486 212.184 96.4164 209.914 97.8928C209.45 98.139 209.887 98.8498 210.324 98.5764Z" fill="black"/>
<path d="M194.248 59.0126C192.716 65.9848 191.842 73.0664 191.65 80.2025C191.65 80.6127 192.196 80.7494 192.416 80.4213C193.482 78.7261 194.548 77.0035 195.614 75.3083C195.888 74.8709 195.177 74.4334 194.904 74.8982C193.838 76.5934 192.771 78.316 191.704 80.0112C191.95 80.0932 192.224 80.1479 192.47 80.2299C192.662 73.1757 193.536 66.1488 195.04 59.2587C195.15 58.7118 194.356 58.4931 194.248 59.0126Z" fill="black"/>
<path d="M195.341 90.4831C194.684 89.2528 194.248 87.9403 194.138 86.5458C194.056 85.5615 194.274 81.5696 196.134 83.1554C197.118 84.0031 196.982 85.8623 197.008 87.0927C197.008 87.6669 197.008 88.2684 196.954 88.8425C196.926 89.2527 196.872 89.6629 196.79 90.0456C196.08 90.5377 195.532 90.5104 195.177 89.991C194.822 89.6082 194.22 90.1824 194.602 90.5652C195.778 91.7682 197.31 91.8228 197.638 89.9362C197.884 88.5965 197.884 87.1748 197.774 85.835C197.692 84.7686 197.692 83.2375 196.9 82.4173C195.724 81.2142 194.056 82.3352 193.592 83.6203C192.744 85.917 193.564 88.8152 194.658 90.8932C194.876 91.3581 195.588 90.948 195.341 90.4831Z" fill="black"/>
<path d="M201 65.8753C201.821 69.7306 206.879 70.0313 208.383 66.477C208.574 65.9848 207.782 65.766 207.59 66.2581C206.36 69.1565 202.422 68.6096 201.794 65.6566C201.684 65.1645 200.892 65.3559 201 65.8753Z" fill="black"/>
<path d="M199.388 56.3878C200.426 54.0637 203.106 52.9427 205.567 53.4622C208.11 54.009 210.051 55.9776 211.309 58.1377C211.582 58.6024 212.293 58.1923 212.02 57.7276C210.57 55.2395 208.274 53.0247 205.321 52.5873C202.668 52.2045 199.825 53.4622 198.676 55.9503C198.458 56.4698 199.169 56.8799 199.388 56.3878Z" fill="black"/>
<path d="M183.366 57.2901C184.104 55.759 185.388 54.0911 187.276 54.1184C189.08 54.1459 190.392 55.7317 191.294 57.1261C191.568 57.5636 192.278 57.1534 192.006 56.7159C190.966 55.0481 189.408 53.3255 187.276 53.2982C185.088 53.2709 183.556 55.0755 182.682 56.88C182.436 57.3448 183.146 57.755 183.366 57.2901Z" fill="black"/>
<path d="M188.204 69.676C188.688 69.676 189.08 67.8765 189.08 65.6567C189.08 63.4369 188.688 61.6375 188.204 61.6375C187.721 61.6375 187.33 63.4369 187.33 65.6567C187.33 67.8765 187.721 69.676 188.204 69.676Z" fill="black"/>
<path d="M190.72 112.93C190.638 113.942 190.528 115.336 190.474 116.95C190.228 122.473 190.446 126.657 190.528 127.777C190.748 131.414 191.24 136.172 192.388 141.695C191.294 142.952 189.654 144.812 187.548 146.999C183.556 151.182 181.506 153.315 178.225 155.53C174.561 157.99 172.018 158.756 170.651 159.111C168.929 159.521 167.288 159.904 165.293 159.467C162.039 158.728 160.097 156.322 159.387 155.392C157.582 153.096 157.172 150.853 156.433 146.479C155.887 143.28 155.777 140.847 155.613 136.144C155.531 133.902 155.422 131.168 155.477 127.504C155.531 123.375 155.75 118.481 156.351 113.013C156.625 110.552 157.007 107.517 157.609 104.072C157.145 103.416 156.653 102.76 156.133 102.076C155.586 101.365 155.067 100.682 154.519 99.9984C153.125 101.174 151.759 102.377 150.363 103.553C150.009 103.69 149.379 103.908 148.613 103.826C147.165 103.69 146.317 102.678 146.017 102.35C144.677 100.818 144.868 98.8771 144.923 98.4943C146.809 96.4437 148.695 94.4203 150.609 92.3697C150.637 91.194 150.801 89.6629 151.267 87.9677C151.621 86.71 152.059 85.6709 152.469 84.7961C152.825 84.0852 153.317 83.2923 153.945 82.4994C155.067 81.0229 156.269 79.9838 157.254 79.273C156.461 79.6285 156.269 79.6285 156.215 79.5737C156.079 79.355 157.363 77.7419 159.168 77.5778C160.179 77.4684 160.973 77.8512 161.519 78.0973C162.367 78.5074 162.941 79.0269 163.297 79.4097C164.991 77.9606 166.687 76.5114 168.382 75.0897C168.983 75.4452 169.585 75.8553 170.187 76.2654C171.581 77.2224 172.839 78.1793 173.96 79.109C173.55 79.6285 173.03 80.2027 172.374 80.7768C171.28 81.7338 170.187 82.308 169.339 82.6908C169.859 82.8547 170.788 83.2375 171.253 84.1398C171.718 85.0148 171.526 85.9718 171.253 87.1748C171.061 87.995 170.815 88.6512 170.624 89.0887C170.733 90.237 170.788 91.7955 170.46 93.5455C169.941 96.4163 168.737 98.549 167.917 99.7795C167.89 100.846 167.863 102.513 167.917 104.564C168.136 113.013 169.366 117.961 170.159 124.195C170.624 127.75 171.089 133.027 170.952 139.671C171.581 139.261 172.483 138.605 173.495 137.757C176.065 135.598 177.706 133.437 179.866 130.266C181.998 127.175 183.392 124.879 185.28 121.817C186.455 119.821 188.342 116.786 190.72 112.93Z" fill="pink"/>
<path opacity="0.24" d="M165.867 87.9677C165.293 89.2253 164.718 90.5104 164.144 91.8228C162.476 95.7601 161.109 99.533 159.988 103.142C159.742 108.829 159.605 113.587 159.496 117.032C159.359 122.255 159.687 128.488 160.289 140.956C160.535 146.097 160.753 149.214 163.16 151.483C165.675 153.834 169.175 153.889 171.143 153.889C181.643 153.862 189.49 144.921 191.65 142.324C188.724 147.3 185.388 150.553 183.119 152.467C180.549 154.627 177.241 157.334 172.101 158.674C167.753 159.822 165.785 159.576 165.265 159.467C161.519 158.565 159.441 155.448 158.703 154.381C156.925 151.729 156.351 148.967 156.023 143.034C155.695 136.937 156.051 135.323 156.161 126.93C156.243 118.919 155.941 116.649 156.543 111.099C156.899 107.845 157.336 105.166 157.691 103.361C156.625 102.24 155.559 101.119 154.493 100.025C153.591 100.818 152.661 101.584 151.731 102.377C151.129 102.896 150.501 103.415 149.899 103.908C149.353 103.963 148.559 103.935 147.711 103.58C145.525 102.65 144.157 99.9429 144.841 99.0142C145.279 98.3848 146.427 98.877 148.013 98.877C150.747 98.9044 152.579 97.51 156.215 94.8851C158.785 92.9985 161.738 90.8932 165.867 87.9677Z" fill="pink"/>
<path d="M190.364 112.712C184.049 121.434 179.374 131.441 171.39 138.878C171.007 139.233 171.581 139.808 171.964 139.452C180.002 131.961 184.705 121.899 191.076 113.123C191.404 112.712 190.693 112.302 190.364 112.712Z" fill="black"/>
<path d="M166.851 160.095C177.678 159.384 185.444 150.307 191.95 142.597C192.278 142.187 191.704 141.613 191.376 142.023C185.06 149.569 177.405 158.591 166.878 159.302C166.331 159.302 166.331 160.123 166.851 160.095Z" fill="black"/>
<path d="M161.711 83.0735C161.765 85.2335 163.187 87.0928 165.265 87.6943C165.785 87.831 166.003 87.0381 165.484 86.9014C163.761 86.4092 162.585 84.8507 162.531 83.0735C162.503 82.554 161.683 82.554 161.711 83.0735Z" fill="black"/>
<path d="M162.558 82.8274C162.831 80.4487 167.069 82.1712 168.218 82.7727C169.339 83.3469 170.46 83.9211 170.706 85.2882C170.897 86.3272 170.569 87.4208 170.296 88.4325C170.159 88.952 170.952 89.1708 171.089 88.6513C171.472 87.2842 171.882 85.7256 171.308 84.3859C170.761 83.0188 169.257 82.39 168.027 81.7885C166.769 81.187 165.402 80.7494 163.98 80.9135C163.406 80.9956 162.667 81.1322 162.203 81.515C161.711 81.8978 161.82 82.1712 161.738 82.8547C161.683 83.3469 162.503 83.3469 162.558 82.8274Z" fill="black"/>
<path d="M170.023 88.2685C169.941 90.3465 170.405 92.3697 169.913 94.4477C169.448 96.3616 168.519 98.1388 167.589 99.8617C167.343 100.326 168.054 100.736 168.3 100.272C169.257 98.4669 170.214 96.635 170.706 94.6664C171.226 92.5338 170.761 90.4284 170.843 88.2685C170.87 87.7216 170.05 87.7216 170.023 88.2685Z" fill="black"/>
<path d="M167.589 99.8884C166.96 114.298 171.089 128.406 170.433 142.816C170.405 143.334 171.225 143.334 171.253 142.816C171.909 128.406 167.781 114.298 168.409 99.8884C168.437 99.3686 167.617 99.3686 167.589 99.8884Z" fill="black"/>
<path d="M154.165 100.189C154.985 101.338 155.859 102.431 156.843 103.443C157.199 103.826 157.773 103.252 157.418 102.869C156.489 101.885 155.641 100.873 154.875 99.7795C154.547 99.3419 153.837 99.7518 154.165 100.189Z" fill="black"/>
<path d="M157.309 103.224C155.75 112.111 154.985 121.134 155.011 130.156C155.039 134.64 155.258 139.151 155.695 143.609C156.051 147.409 156.489 151.401 158.485 154.737C160.289 157.772 163.461 160.068 167.07 159.986C167.589 159.959 167.589 159.139 167.07 159.166C162.011 159.302 158.757 154.791 157.582 150.361C156.269 145.495 156.161 140.191 155.969 135.187C155.559 124.578 156.297 113.915 158.129 103.471C158.183 102.923 157.391 102.704 157.309 103.224Z" fill="black"/>
<path d="M152.141 90.9479C149.571 93.1079 147.083 95.3772 144.731 97.756C144.349 98.1388 144.95 98.713 145.305 98.3302C147.685 95.9515 150.145 93.682 152.715 91.522C153.125 91.1939 152.551 90.6197 152.141 90.9479Z" fill="black"/>
<path d="M144.485 98.4943C144.075 101.666 146.481 104.345 149.681 104.318C150.199 104.318 150.199 103.497 149.681 103.497C146.919 103.525 144.95 101.201 145.305 98.4943C145.387 97.9747 144.567 97.9747 144.485 98.4943Z" fill="black"/>
<path d="M145.251 98.303C148.121 98.3849 150.117 100.955 149.517 103.744C149.407 104.264 150.199 104.483 150.309 103.963C151.047 100.599 148.696 97.592 145.251 97.4826C144.731 97.4826 144.731 98.303 145.251 98.303Z" fill="black"/>
<path d="M150.637 103.826C153.755 100.983 156.925 98.1661 159.961 95.2406C161.355 93.9008 162.695 92.5337 163.953 91.0573C164.636 90.2644 166.359 88.7059 166.386 87.6122C166.386 87.4755 166.304 87.3114 166.195 87.2567C166.14 87.2294 166.085 87.2021 166.058 87.2021C165.894 87.12 165.675 87.12 165.566 87.2567C165.539 87.2841 165.511 87.3114 165.484 87.3661C165.156 87.7763 165.73 88.3504 166.058 87.9403C166.085 87.913 166.113 87.8856 166.14 87.8309C165.976 87.8582 165.812 87.8856 165.648 87.8856C165.593 87.6395 165.511 87.6395 165.402 87.913C165.265 88.1044 165.128 88.2958 164.964 88.4872C164.636 88.8973 164.335 89.3074 163.98 89.7175C163.433 90.4011 162.831 91.0573 162.257 91.7135C161.055 93.0258 159.797 94.2563 158.511 95.4593C155.723 98.0841 152.879 100.627 150.063 103.224C149.653 103.607 150.255 104.182 150.637 103.826Z" fill="purple"/>
<path d="M150.993 92.479C151.184 91.1666 151.375 89.8543 151.567 88.5418C151.703 87.5574 151.813 86.4638 152.359 85.5889C153.617 83.5656 155.395 85.0147 156.351 86.3818C156.761 86.9559 157.145 87.5849 157.555 88.159C157.773 88.4871 158.839 89.6629 158.703 90.073C158.839 89.9636 158.977 89.8816 159.086 89.7722C159.031 89.7722 159.004 89.7722 158.949 89.7722C158.429 89.7448 158.429 90.5651 158.949 90.5924C159.004 90.5924 159.031 90.5924 159.086 90.5924C159.277 90.5924 159.441 90.4558 159.469 90.2917C159.66 89.6081 159.195 89.198 158.839 88.6511C158.157 87.6395 157.5 86.6005 156.789 85.6162C156.051 84.6046 155.094 83.6203 153.727 83.7569C152.415 83.8937 151.621 84.9054 151.211 86.0811C150.527 88.0223 150.473 90.237 150.173 92.2603C150.117 92.7798 150.911 92.9985 150.993 92.479Z" fill="black"/>
<path d="M152.277 89.3895C153.016 90.8387 154.247 92.3151 155.997 92.4244C157.445 92.5339 158.813 91.7135 159.195 90.2918C159.332 89.7723 158.539 89.5536 158.403 90.0731C158.047 91.3855 156.597 91.8776 155.395 91.4675C154.247 91.0574 153.508 90.0457 152.989 89.0067C152.743 88.5145 152.031 88.9247 152.277 89.3895Z" fill="black"/>
<path d="M153.289 84.0578C153.426 82.7181 154.957 82.3626 155.997 82.7181C157.09 83.0735 157.937 84.0578 158.703 84.8507C159.305 85.4797 160.48 86.3545 160.645 87.2295C160.863 88.4052 159.387 89.1981 158.403 89.4989C157.91 89.6355 158.101 90.4285 158.621 90.2918C159.824 89.9363 161.574 88.87 161.765 87.4482C161.847 86.8741 161.492 86.5732 161.109 86.1631C160.343 85.3429 159.605 84.55 158.813 83.7571C157.746 82.6634 156.379 81.4877 154.739 81.7611C153.508 81.9525 152.605 82.7727 152.469 84.0305C152.415 84.5773 153.235 84.5773 153.289 84.0578Z" fill="black"/>
<path d="M154.765 82.0345C155.149 81.597 155.34 81.0229 155.695 80.5854C156.571 79.4917 157.937 80.5033 158.839 81.1596C160.589 82.3899 162.449 84.632 160.863 86.7646C160.562 87.2021 161.273 87.6122 161.574 87.1748C163.269 84.878 161.601 82.2259 159.66 80.7494C158.757 80.0659 157.391 78.8355 156.161 79.1909C155.067 79.4917 154.875 80.7494 154.191 81.4876C153.837 81.8431 154.411 82.4173 154.765 82.0345Z" fill="red"/>
<path d="M157.527 79.5463C158.485 78.3706 159.742 77.1403 161.219 78.3706C162.203 79.1635 162.831 80.2845 163.187 81.4602C163.351 81.9524 164.117 81.761 163.98 81.2415C163.515 79.6557 162.449 77.8238 160.863 77.1676C159.25 76.5113 157.91 77.7964 156.953 78.9721C156.625 79.3549 157.199 79.9564 157.527 79.5463Z" fill="black"/>
<path d="M163.57 79.6557C165.265 78.2066 166.96 76.7575 168.655 75.3357C169.065 74.9803 168.464 74.406 168.081 74.7615C166.386 76.2107 164.691 77.6598 162.995 79.0815C162.585 79.437 163.187 80.0112 163.57 79.6557Z" fill="black"/>
<path d="M169.612 83.1554C171.226 81.9797 172.784 80.7221 174.233 79.355C174.616 78.9995 174.042 78.4254 173.659 78.7808C172.237 80.0931 170.761 81.3236 169.202 82.4446C168.765 82.7453 169.175 83.4562 169.612 83.1554Z" fill="black"/>
<path d="M181.889 81.1049C191.01 81.1049 198.404 73.7111 198.404 64.5904C198.404 55.4697 191.01 48.0759 181.889 48.0759C172.768 48.0759 165.375 55.4697 165.375 64.5904C165.375 73.7111 172.768 81.1049 181.889 81.1049Z" stroke="black" stroke-width="3" stroke-miterlimit="10"/>
<path d="M171.882 66.6137C177.952 62.7311 184.158 59.0673 190.502 55.6222C190.966 55.3762 190.556 54.6653 190.092 54.9113C183.748 58.3291 177.542 61.9929 171.472 65.9028C171.034 66.2036 171.444 66.9144 171.882 66.6137Z" fill="black"/>
<path d="M172.565 73.7772C177.569 70.1134 182.627 66.5864 187.794 63.1413C188.232 62.8405 187.822 62.1296 187.384 62.4304C182.244 65.8754 177.159 69.4299 172.155 73.0664C171.718 73.3671 172.128 74.078 172.565 73.7772Z" fill="black"/>
</g>
<defs>
<clipPath id="clip0_9_2">
<rect width="332" height="301" fill="white"/>
</clipPath>
</defs>
</svg>
